<?xml version="1.0" standalone="no"?>
<!DOCTYPE svg PUBLIC "-//W3C//DTD SVG 20010904//EN"
 "http://www.w3.org/TR/2001/REC-SVG-20010904/DTD/svg10.dtd">
<svg version="1.0" xmlns="http://www.w3.org/2000/svg"
 width="1600.000000pt" height="1600.000000pt" viewBox="0 0 1600.000000 1600.000000"
 preserveAspectRatio="xMidYMid meet">
<metadata>
Created by potrace 1.11, written by Peter Selinger 2001-2013
</metadata>
<g transform="translate(0.000000,1600.000000) scale(0.100000,-0.100000)"
fill="#000000" stroke="none">
<path d="M2095 14723 c-71 -10 -195 -47 -263 -78 -261 -121 -453 -347 -533
-630 -22 -78 -23 -94 -26 -632 l-4 -553 6666 0 6666 0 -3 558 c-4 616 -2 595
-73 764 -110 261 -352 469 -640 550 l-80 23 -5840 1 c-3212 1 -5853 -1 -5870
-3z"/>
<path d="M1272 6913 l3 -5278 21 -46 c30 -64 88 -125 148 -157 l51 -27 6425
-3 c5970 -2 6428 -1 6475 15 68 22 165 119 188 187 16 46 17 421 17 5318 l0
5268 -6665 0 -6665 0 2 -5277z m4668 2374 c143 -37 233 -69 342 -119 57 -26
67 -34 63 -52 -3 -12 -28 -124 -55 -251 -28 -126 -52 -230 -54 -232 -1 -2 -45
17 -97 41 -326 154 -607 178 -824 70 -84 -42 -178 -133 -216 -209 -83 -169
-42 -369 105 -516 77 -78 171 -146 375 -274 454 -284 665 -538 748 -898 23
-99 23 -364 0 -464 -104 -458 -429 -754 -922 -839 -144 -25 -393 -22 -550 5
-205 36 -405 106 -405 141 0 18 86 449 96 482 5 17 7 17 42 -1 146 -74 365
-123 552 -124 153 -1 234 15 337 64 198 94 299 329 248 574 -43 204 -184 359
-535 587 -260 169 -457 349 -574 525 -140 210 -183 367 -165 589 39 457 374
811 865 913 142 29 143 30 324 26 152 -2 176 -5 300 -38z m2092 28 c154 -27
495 -138 530 -173 8 -8 -92 -496 -104 -507 -2 -3 -40 13 -84 34 -100 49 -260
105 -358 125 -96 20 -264 21 -341 1 -240 -61 -395 -234 -395 -441 0 -228 118
-360 567 -638 286 -176 500 -390 608 -606 133 -266 152 -571 54 -866 -121
-367 -445 -623 -884 -699 -119 -21 -359 -24 -485 -6 -178 25 -430 99 -460 136
-11 13 11 138 80 462 l11 51 62 -28 c187 -84 335 -115 542 -114 145 0 167 2
237 26 225 75 348 248 348 488 0 194 -78 345 -259 503 -36 32 -147 112 -246
179 -215 145 -331 236 -443 349 -154 154 -246 294 -304 460 -32 92 -33 97 -32
259 1 148 3 174 27 255 121 405 453 678 914 749 119 19 312 19 415 1z m1808
-775 l0 -790 475 0 475 0 0 790 0 790 320 0 320 0 0 -1905 0 -1905 -317 2
-318 3 -3 793 -2 792 -475 0 -475 0 0 -795 0 -795 -315 0 -315 0 0 1905 0
1905 315 0 315 0 0 -790z"/>
</g>
</svg>
